<?xml version="1.0" encoding="utf-8"?>
<!-- Generator: Adobe Illustrator 23.0.4, SVG Export Plug-In . SVG Version: 6.00 Build 0)  -->
<svg version="1.1" id="Layer_1" xmlns="http://www.w3.org/2000/svg" xmlns:xlink="http://www.w3.org/1999/xlink" x="0px" y="0px"
	 viewBox="0 0 27.8 32" style="enable-background:new 0 0 27.8 32;" xml:space="preserve">
<style type="text/css">
	.st0{fill:#FFDB00;}
	.st1{fill:none;stroke:#231815;stroke-linecap:round;stroke-miterlimit:10;}
	.st2{fill:#FC9428;stroke:#231815;stroke-linecap:round;stroke-miterlimit:10;}
	.st3{fill:#231815;}
	.st4{fill:#FFFFFF;}
</style>
<title>rub_duck</title>
<path class="st0" d="M24.6,16.4L24.6,16.4c0.9,1.3,0.9,4.9-0.2,7.2c-1.7,3.6-6.4,5.4-13.1,5s-8.5-4-8.7-7.1s2.6-5.1,2.6-5.1
	c-2.1-1-2.7-3.6-2.6-6.1s3.1-7,7.4-6.9c3.8-0.1,7.2,2.5,7.9,6.3c0.1,0.4,0.2,0.8,0.2,1.2c2.6-3.4,3.8-2.2,4.8-0.5
	C23.7,12.3,24.3,14.3,24.6,16.4z"/>
<path class="st1" d="M24.6,16.4c-0.5-0.7-1.3-0.7-2.4,0.7"/>
<path class="st1" d="M15.3,17.1c0,0,3.2-2.7,2.9-6.3c0-0.4-0.1-0.8-0.2-1.2c-0.7-3.8-4.1-6.4-7.9-6.3c-4.3-0.1-7.3,4.4-7.4,6.9
	s0.5,5.1,2.6,6.1c0,0-2.8,1.9-2.6,5.1s2,6.7,8.7,7.1s11.4-1.4,13.1-5c1.1-2.3,1.1-5.9,0.2-7.2"/>
<path class="st1" d="M24.6,16.4L24.6,16.4c-0.3-2.1-0.9-4-1.7-6c-0.8-1.8-2.2-2.9-4.8,0.5"/>
<path class="st2" d="M6.1,13.6c-0.6,0.5-1.3,0.9-2,1.2C3,15.2,2,16.3,4.6,17.5c2.2,0.9,4.7,0.8,6.9-0.1c0.6-0.3,0.9-1.1,0.6-1.7
	c-0.1-0.2-0.3-0.4-0.6-0.6c-0.8-0.2-1.5-0.6-2.1-1.2c-0.7-0.7-1.5-1.6-2.4-1L6.1,13.6z"/>
<circle class="st3" cx="4.9" cy="11.2" r="1.2"/>
<circle class="st4" cx="4.6" cy="10.7" r="0.3"/>
<circle class="st3" cx="12.8" cy="11.7" r="1.3"/>
<circle class="st4" cx="12.5" cy="11.2" r="0.3"/>
</svg>
